<svg xmlns="http://www.w3.org/2000/svg" width="139.467" height="31.797" viewBox="0 0 139.467 31.797">
  <g id="Logo_white" data-name="Logo white" transform="translate(-38 -30.203)">
    <path id="Subtraction_14" data-name="Subtraction 14" d="M21.416,36.706a5.007,5.007,0,0,1-2.5-.67L9.663,30.694a5.009,5.009,0,0,1-2.5-4.361L7.232,15.4A5.022,5.022,0,0,1,9.7,11.119L14.54,8.287l.071,11.081c.03,1.792.006,3.622-.018,5.392-.016,1.178-.032,2.4-.032,3.589,0,.76.49,1.179,1.38,1.179.941,0,1.48-.421,1.48-1.154L17.37,22.5h.154c1.323,0,2.658-.012,3.948-.024,1.343-.012,2.612-.024,3.875-.024l.025,3.738v8.991l-1.429.837A5.006,5.006,0,0,1,21.416,36.706ZM28.2,33.524v0l-.072-12.5c.025-3.286.025-4.575.025-7.4a1.222,1.222,0,0,0-1.38-1.354,1.254,1.254,0,0,0-1.43,1.38c0,.691.005,1.633.011,2.631.007,1.17.014,2.5.014,3.64l-1.28.025c-.682,0-1.442.006-2.177.013s-1.477.013-2.137.013c-.976,0-1.567-.011-1.958-.019-.194,0-.334-.006-.45-.006-.013-1.994-.013-5.809-.013-9.174,0-1.491,0-2.925,0-4.134l1.779-1.042a5,5,0,0,1,5.027-.015l9.253,5.342a5.008,5.008,0,0,1,2.5,4.361l-.068,10.93A5.026,5.026,0,0,1,33.374,30.5l-5.168,3.027Z" transform="translate(30.837 25.294)" fill="#8231d3"/>
    <path id="Path_99" data-name="Path 99" d="M14.88-8.016c.024-3.144.024-4.416.024-7.08a1.173,1.173,0,0,0-1.32-1.3,1.2,1.2,0,0,0-1.368,1.32c0,1.44.024,3.984.024,6l-1.224.024c-1.3,0-2.856.024-4.128.024-1.392,0-1.968-.024-2.3-.024-.024-3.816,0-4.752-.024-6.24,0-.72-.576-1.032-1.3-1.032-.912,0-1.416.384-1.416,1.224l.1,5.5C1.992-6.744,1.9-3.864,1.9-1.008,1.9-.192,2.472.12,3.216.12c.768,0,1.416-.312,1.416-1.1L4.584-6.6c2.592,0,5.184-.048,7.632-.048l.024,3.576v2.016c0,.792.552,1.176,1.344,1.176.888,0,1.392-.336,1.392-1.176ZM20.472-4.8c2.856-.024,4.488,0,5.832-.048,1.68-.024,1.872-.648,1.872-1.9a4.716,4.716,0,0,0-4.848-4.416c-3.12,0-5.52,2.712-5.52,6.072A5.363,5.363,0,0,0,23.184.192a6.69,6.69,0,0,0,3.864-.96,1.358,1.358,0,0,0,.72-1.1,1.235,1.235,0,0,0-1.1-1.248,1.815,1.815,0,0,0-.936.312A4.656,4.656,0,0,1,23.4-2.16,2.861,2.861,0,0,1,20.472-4.8Zm2.9-4.224a2.258,2.258,0,0,1,2.3,2.232c0,.12-.12.192-.288.216-1.008.072-3.648.1-4.9.1A2.916,2.916,0,0,1,23.376-9.024Zm7.008,7.032A1.253,1.253,0,0,0,30-1.08,1.355,1.355,0,0,0,31.344.12a1.406,1.406,0,0,0,1.2-.72c.6-.768,1.464-1.872,2.568-3.192.576.72,1.968,2.448,2.544,3.168a1.516,1.516,0,0,0,1.2.744A1.375,1.375,0,0,0,40.2-1.056a1.487,1.487,0,0,0-.552-1.056l-3-3.384L38.76-7.92c.744-.816,1.344-1.3,1.344-1.944a1.4,1.4,0,0,0-1.368-1.224c-.432,0-.744.216-1.248.816-1.08,1.368-1.92,2.424-2.424,3.024-.5-.624-1.152-1.416-2.64-3.264a1.268,1.268,0,0,0-1.056-.552c-.576.024-1.3.552-1.3,1.128a1.382,1.382,0,0,0,.432.96c.744.912,1.848,2.112,2.616,2.976l.408.456L32.472-4.272ZM53.136-7.728l.024-1.848c0-.912-.288-1.464-1.248-1.464a1.047,1.047,0,0,0-1.056.744c-.048.216-.1.6-.144.888a3.839,3.839,0,0,0-3.264-1.68c-3.12,0-5.52,2.424-5.52,5.928A5.085,5.085,0,0,0,47.136.168a3.869,3.869,0,0,0,3.528-1.92C50.832-.5,51.048.1,51.84.1c.7,0,1.368-.24,1.368-1.1-.072-1.032-.1-2.04-.1-3.072Zm-8.544,2.5c0-2.136,1.272-3.6,3-3.6a3.074,3.074,0,0,1,3.024,3.36,3.145,3.145,0,0,1-3.144,3.384A2.956,2.956,0,0,1,44.592-5.232Zm11.736-9.456.072,7.32-.048,5.784A1.406,1.406,0,0,0,57.624-.072C58.68.024,59.856,0,60.816,0c5.472-.048,9.12-2.376,9.12-8.688,0-4.944-3.816-7.512-8.328-7.656-.336-.024-2.424,0-2.832,0C57.528-16.344,56.328-16.056,56.328-14.688Zm4.848.744c3.216,0,6.12,1.656,6.12,5.52,0,4.488-2.76,6-6.648,6-1.224,0-1.608.024-1.608-.552V-13.9C59.592-13.944,60.84-13.944,61.176-13.944ZM82.92-7.728l.024-1.848c0-.912-.288-1.464-1.248-1.464a1.047,1.047,0,0,0-1.056.744c-.048.216-.1.6-.144.888a3.839,3.839,0,0,0-3.264-1.68c-3.12,0-5.52,2.424-5.52,5.928A5.085,5.085,0,0,0,76.92.168a3.869,3.869,0,0,0,3.528-1.92C80.616-.5,80.832.1,81.624.1c.7,0,1.368-.24,1.368-1.1-.072-1.032-.1-2.04-.1-3.072Zm-8.544,2.5c0-2.136,1.272-3.6,3-3.6A3.074,3.074,0,0,1,80.4-5.472a3.145,3.145,0,0,1-3.144,3.384A2.956,2.956,0,0,1,74.376-5.232Zm15.744-5.9c-2.256,0-4.416,1.44-4.416,3.552,0,2.16,2.088,2.664,4.008,2.928C91.2-4.44,92.04-4.2,92.04-3.288c0,.864-.864,1.32-1.92,1.32-1.68,0-2.592-.7-3.48-.7-.768,0-1.032.624-1.032,1.3,0,.84,2.16,1.56,4.272,1.56,2.784,0,4.56-1.3,4.56-3.552,0-2.208-1.752-2.928-4.056-3.24-1.2-.168-2.28-.24-2.28-1.128,0-.816.936-1.344,2.04-1.344a22.584,22.584,0,0,1,2.9.552c.72,0,1.032-.456,1.032-1.128,0-.48-.336-.744-.744-.936A7.994,7.994,0,0,0,90.12-11.136Zm6.936-4.944L97.08-4.2c0,.768-.072,2.136-.072,3.192A1.145,1.145,0,0,0,98.3.12c.816,0,1.368-.384,1.368-1.128,0-1.1-.048-3.264-.048-4.728a2.907,2.907,0,0,1,2.736-3.1c1.464,0,2.328.96,2.328,2.712,0,1.08-.072,4.152-.12,5.064,0,.768.624,1.128,1.32,1.128.816,0,1.392-.36,1.416-1.128.024-1.944,0-3.624,0-5.256,0-2.736-1.488-4.872-4.272-4.872a3.8,3.8,0,0,0-3.384,1.9c.048-5.088.072-6.192.072-6.936a1.148,1.148,0,0,0-1.272-1.3C97.512-17.52,97.056-17.04,97.056-16.08Z" transform="translate(70.152 54.723)" fill="#fff"/>
  </g>
</svg>
