<svg xmlns="http://www.w3.org/2000/svg" width="28" height="30.274" viewBox="0 0 28 30.274">
  <path id="award" d="M30.774,25.562l-4.212-7.273a10.723,10.723,0,0,0,1.305-5.16,10.879,10.879,0,0,0-21.758,0,10.723,10.723,0,0,0,1.305,5.16L3.2,25.562a1.554,1.554,0,0,0,1.352,2.331h4.46l2.269,3.823a1.628,1.628,0,0,0,1.352.777h.218a1.554,1.554,0,0,0,1.135-.762l3-5.16,3,5.206a1.554,1.554,0,0,0,1.135.746h.218a1.554,1.554,0,0,0,1.088-.435,1.352,1.352,0,0,0,.264-.326l2.269-3.823h4.46a1.577,1.577,0,0,0,1.352-2.378ZM12.622,27.939l-1.383-2.316a1.554,1.554,0,0,0-1.321-.762H7.229l2.222-3.854A10.879,10.879,0,0,0,15,23.868Zm4.367-7.04a7.771,7.771,0,1,1,7.771-7.771A7.771,7.771,0,0,1,16.989,20.9Zm7.071,3.963a1.554,1.554,0,0,0-1.321.762l-1.383,2.316-2.362-4.118a10.972,10.972,0,0,0,5.533-2.86l2.222,3.854Z" transform="translate(-2.996 -2.25)"/>
</svg>
