<svg xmlns="http://www.w3.org/2000/svg" width="28" height="28" viewBox="0 0 28 28" fill="#01b81a">
  <path id="usd-circle" d="M13.727,11.182h5.091a1.273,1.273,0,1,0,0-2.545H16.273V7.364a1.273,1.273,0,0,0-2.545,0V8.636a3.818,3.818,0,1,0,0,7.636h2.545a1.273,1.273,0,0,1,0,2.545H11.182a1.273,1.273,0,1,0,0,2.545h2.545v1.273a1.273,1.273,0,0,0,2.545,0V21.364a3.818,3.818,0,1,0,0-7.636H13.727a1.273,1.273,0,1,1,0-2.545ZM15,1A14,14,0,1,0,29,15,14,14,0,0,0,15,1Zm0,25.455A11.455,11.455,0,1,1,26.455,15,11.455,11.455,0,0,1,15,26.455Z" transform="translate(-1 -1)" />
</svg>
