<svg id="Group_10865" data-name="Group 10865" xmlns="http://www.w3.org/2000/svg" width="14.999" height="10.719" viewBox="0 0 14.999 10.719">
  <path id="Path_1953" data-name="Path 1953" d="M1.134,10.688c.364-.126.732-.235,1.083-.379A6.837,6.837,0,0,0,6.623,5.433a4.322,4.322,0,0,0-.871-4.073A3.635,3.635,0,0,0,3.188.008,2.96,2.96,0,0,0,.329,1.379a2.048,2.048,0,0,0,.15,2.43A2.4,2.4,0,0,0,3,4.541c.206-.054.405-.128.611-.18a.76.76,0,0,1,1.042.56,3.3,3.3,0,0,1-.218,2.11A3.862,3.862,0,0,1,3.005,8.711c-.472.333-.965.641-1.461.94S.975,10.074,1.134,10.688Z" transform="translate(0 0)" fill="#adb5d9"/>
  <path id="Path_1954" data-name="Path 1954" d="M1,10.7a.557.557,0,0,0,.141,0A7.738,7.738,0,0,0,6.333,6.287a5.162,5.162,0,0,0,.285-3.161A4.131,4.131,0,0,0,3.428.053,3,3,0,0,0,.6.934,2.16,2.16,0,0,0,1.84,4.569,4.557,4.557,0,0,0,3.1,4.478c.179-.021.349-.1.528-.14a.694.694,0,0,1,.92.53,3.157,3.157,0,0,1-.222,2.189,4.412,4.412,0,0,1-1.572,1.8,15.884,15.884,0,0,1-1.461.887C1.067,9.867.967,10,1,10.237A3.354,3.354,0,0,1,1,10.7Z" transform="translate(8.252 0.018)" fill="#adb5d9"/>
</svg>
