<svg xmlns="http://www.w3.org/2000/svg" width="28" height="29.556" viewBox="0 0 28 29.556">
  <path id="shopping-cart" d="M12.111,27.889a2.333,2.333,0,1,0,2.333,2.333A2.333,2.333,0,0,0,12.111,27.889Zm16.333-4.667H9.778a1.556,1.556,0,0,1,0-3.111H22.986a4.687,4.687,0,0,0,4.487-3.385L29.94,8.094a1.556,1.556,0,0,0-1.5-1.983H9.372A4.677,4.677,0,0,0,4.989,3H3.556a1.556,1.556,0,1,0,0,3.111H4.989a1.563,1.563,0,0,1,1.5,1.128l.242.847v.008l2.552,8.932a4.667,4.667,0,0,0,.5,9.307H28.444a1.556,1.556,0,0,0,0-3.111Zm-2.062-14-1.9,6.649A1.563,1.563,0,0,1,22.986,17H12.507l-.4-1.388-1.825-6.39ZM24.556,27.889a2.333,2.333,0,1,0,2.333,2.333A2.333,2.333,0,0,0,24.556,27.889Z" transform="translate(-2 -3)"/>
</svg>
