<svg xmlns="http://www.w3.org/2000/svg" width="28" height="21.666" viewBox="0 0 28 21.666" fill="#5840ff">
  <path id="users-alt" d="M15.4,14.613a6.27,6.27,0,0,0,2.167-4.741,6.372,6.372,0,1,0-12.745,0A6.27,6.27,0,0,0,6.99,14.613,10.2,10.2,0,0,0,1,23.891a1.274,1.274,0,1,0,2.549,0,7.647,7.647,0,0,1,15.293,0,1.274,1.274,0,0,0,2.549,0,10.2,10.2,0,0,0-5.99-9.278ZM11.2,13.7a3.823,3.823,0,1,1,3.823-3.823A3.823,3.823,0,0,1,11.2,13.7Zm12.413.408A6.372,6.372,0,0,0,18.842,3.5a1.274,1.274,0,0,0,0,2.549,3.817,3.817,0,0,1,1.912,7.124,1.273,1.273,0,0,0-.064,2.167l.5.331.166.089a8.921,8.921,0,0,1,5.1,8.131,1.274,1.274,0,0,0,2.549,0A11.47,11.47,0,0,0,23.609,14.1Z" transform="translate(-1 -3.5)"/>
</svg>
