<svg xmlns="http://www.w3.org/2000/svg" width="28" height="26.6" viewBox="0 0 28 26.6">
  <path id="briefcase-alt" d="M25.8,8.1H21.6V6.7a4.2,4.2,0,0,0-4.2-4.2H14.6a4.2,4.2,0,0,0-4.2,4.2V8.1H6.2A4.2,4.2,0,0,0,2,12.3V24.9a4.2,4.2,0,0,0,4.2,4.2H25.8A4.2,4.2,0,0,0,30,24.9V12.3A4.2,4.2,0,0,0,25.8,8.1ZM13.2,6.7a1.4,1.4,0,0,1,1.4-1.4h2.8a1.4,1.4,0,0,1,1.4,1.4V8.1H13.2Zm14,18.2a1.4,1.4,0,0,1-1.4,1.4H6.2a1.4,1.4,0,0,1-1.4-1.4V17.2A29.778,29.778,0,0,0,9,18.516v.826a1.4,1.4,0,0,0,2.8,0v-.294a32.2,32.2,0,0,0,4.2.294,32.2,32.2,0,0,0,4.2-.294v.294a1.4,1.4,0,0,0,2.8,0v-.826A29.778,29.778,0,0,0,27.2,17.2Zm0-10.766a28.547,28.547,0,0,1-4.2,1.4V15.1a1.4,1.4,0,1,0-2.8,0v1.036a28.154,28.154,0,0,1-8.4,0V15.1a1.4,1.4,0,1,0-2.8,0v.462a28.546,28.546,0,0,1-4.2-1.4V12.3a1.4,1.4,0,0,1,1.4-1.4H25.8a1.4,1.4,0,0,1,1.4,1.4Z" transform="translate(-2 -2.5)"/>
</svg>
