<svg xmlns="http://www.w3.org/2000/svg" width="28" height="21.706" viewBox="0 0 28 21.706">
  <path id="tachometer-fast-alt_1_" data-name="tachometer-fast-alt (1)" d="M16,5A14,14,0,0,0,3.876,26a1.4,1.4,0,1,0,2.436-1.4A11.088,11.088,0,0,1,4.8,19a11.2,11.2,0,1,1,20.9,5.6A1.4,1.4,0,1,0,28.125,26,14,14,0,0,0,16,5Zm3.976,8.064-2.17,2.156A4.074,4.074,0,0,0,16,14.8,4.2,4.2,0,1,0,20.2,19a4.06,4.06,0,0,0-.42-1.792l2.17-2.156a1.4,1.4,0,1,0-1.974-1.988ZM16,20.4a1.4,1.4,0,1,1,.98-2.408h0A1.406,1.406,0,0,1,16,20.4Z" transform="translate(-2 -5)" fill="#00e4ec"/>
</svg>
