<svg xmlns="http://www.w3.org/2000/svg" width="30.05" height="21.035" viewBox="0 0 30.05 21.035">
  <path id="ticket" d="M12.518,12.513a1.5,1.5,0,0,0-1.5,1.5V17.02a1.5,1.5,0,1,0,3.005,0V14.015A1.5,1.5,0,0,0,12.518,12.513Zm18.03,1.5a1.5,1.5,0,0,0,1.5-1.5V6.5a1.5,1.5,0,0,0-1.5-1.5H3.5A1.5,1.5,0,0,0,2,6.5v6.01a1.5,1.5,0,0,0,1.5,1.5,1.5,1.5,0,1,1,0,3.005,1.5,1.5,0,0,0-1.5,1.5v6.01a1.5,1.5,0,0,0,1.5,1.5H30.548a1.5,1.5,0,0,0,1.5-1.5v-6.01a1.5,1.5,0,0,0-1.5-1.5,1.5,1.5,0,1,1,0-3.005Zm-1.5-2.735a4.508,4.508,0,0,0,0,8.474V23.03H14.02a1.5,1.5,0,0,0-3.005,0H5.005V19.755a4.508,4.508,0,0,0,0-8.474V8.005h6.01a1.5,1.5,0,1,0,3.005,0H29.045Z" transform="translate(-2 -5)" fill="#5840FF"/>
</svg>
