<svg xmlns="http://www.w3.org/2000/svg" width="14.999" height="10.719" viewBox="0 0 14.999 10.719">
  <g id="Group_3652" data-name="Group 3652" transform="translate(14.999 10.719) rotate(180)">
    <path id="Path_1953" data-name="Path 1953" d="M298.192,130.154c.364-.126.732-.235,1.083-.379a6.837,6.837,0,0,0,4.406-4.877,4.322,4.322,0,0,0-.871-4.073,3.635,3.635,0,0,0-2.564-1.352,2.96,2.96,0,0,0-2.859,1.372,2.048,2.048,0,0,0,.15,2.43,2.4,2.4,0,0,0,2.525.732c.206-.054.405-.128.611-.18a.76.76,0,0,1,1.042.56,3.3,3.3,0,0,1-.218,2.11,3.862,3.862,0,0,1-1.434,1.681c-.472.333-.965.641-1.461.94S298.032,129.539,298.192,130.154Z" transform="translate(-297.058 -119.466)" fill="#adb5d9"/>
    <path id="Path_1954" data-name="Path 1954" d="M153.043,130.452a.557.557,0,0,0,.141,0,7.738,7.738,0,0,0,5.188-4.408,5.162,5.162,0,0,0,.285-3.161,4.131,4.131,0,0,0-3.191-3.073,3,3,0,0,0-2.823.881,2.16,2.16,0,0,0,1.236,3.634,4.557,4.557,0,0,0,1.261-.091c.179-.021.349-.1.528-.14a.694.694,0,0,1,.92.53,3.157,3.157,0,0,1-.222,2.189,4.412,4.412,0,0,1-1.572,1.8,15.884,15.884,0,0,1-1.461.887c-.228.123-.327.251-.293.493A3.354,3.354,0,0,1,153.043,130.452Z" transform="translate(-143.787 -119.738)" fill="#adb5d9"/>
  </g>
</svg>
