<svg xmlns="http://www.w3.org/2000/svg" width="80" height="56.822" viewBox="0 0 80 56.822">
  <path id="youtube" d="M80.973,24.284A31.5,31.5,0,0,0,77.666,9.113,10.588,10.588,0,0,0,71.415,5.44,281.746,281.746,0,0,0,41,4.3,282.045,282.045,0,0,0,10.69,5.4,10.39,10.39,0,0,0,5.384,8.122c-3.271,3.049-3.634,8.265-4,12.673a179.292,179.292,0,0,0,0,23.8,35.432,35.432,0,0,0,1.09,7.347,11.577,11.577,0,0,0,2.58,5,10.357,10.357,0,0,0,5.415,2.865,162.45,162.45,0,0,0,23.621,1.212c12.719.184,23.876,0,37.067-1.029a10.427,10.427,0,0,0,5.56-2.865,9.164,9.164,0,0,0,2.217-3.673,39.25,39.25,0,0,0,1.89-12.489C80.973,38.9,80.973,26.488,80.973,24.284ZM32.785,43.165V20.427L54.3,31.851C48.266,35.231,40.308,39.051,32.785,43.165Z" transform="translate(-0.991 -4.258)" fill="#090e30"/>
</svg>
